<?xml version="1.0" ?>
<!DOCTYPE svg  PUBLIC '-//W3C//DTD SVG 1.1//EN'  'http://www.w3.org/Graphics/SVG/1.1/DTD/svg11.dtd'>
<svg enable-background="new 0 0 85 85" height="85px" id="Layer_1" version="1.1" viewBox="0 0 85 85" width="85px" xml:space="preserve" xmlns="http://www.w3.org/2000/svg" xmlns:xlink="http://www.w3.org/1999/xlink">
<g><g><line fill="none" stroke="#1B3236" stroke-linecap="round" stroke-linejoin="round" stroke-miterlimit="10" stroke-width="3.7" x1="26.616" x2="26.616" y1="10.684" y2="17.62"/><line fill="none" stroke="#1B3236" stroke-linecap="round" stroke-linejoin="round" stroke-miterlimit="10" stroke-width="3.7" x1="30.085" x2="23.149" y1="14.153" y2="14.153"/></g><path d="   M69.56,32.413c-4.415,4.414-11.574,4.416-15.986-0.002c-4.412-4.41-4.413-11.568,0-15.981s11.571-4.413,15.985-0.001   C73.973,20.843,73.972,28.001,69.56,32.413z" fill="none" stroke="#1B3236" stroke-linecap="round" stroke-linejoin="round" stroke-miterlimit="10" stroke-width="3.7"/><path d="   M61.61,19.804c-1.551-1.957-1.667-4.449-0.255-5.566c1.409-1.121,3.81-0.442,5.363,1.511c1.55,1.955,1.666,4.45,0.256,5.567" fill="none" stroke="#1B3236" stroke-linecap="round" stroke-linejoin="round" stroke-miterlimit="10" stroke-width="3.7"/><path d="   M54.109,23.302c1.224-1.355,3.212-1.557,4.438-0.446c1.226,1.107,1.229,3.106,0.004,4.46" fill="none" stroke="#1B3236" stroke-linecap="round" stroke-linejoin="round" stroke-miterlimit="10" stroke-width="3.7"/><path d="   M58.859,59.082c1.278-1.416,3.354-1.627,4.635-0.467c0.68,0.613,1,1.49,0.959,2.391" fill="none" stroke="#1B3236" stroke-linecap="round" stroke-linejoin="round" stroke-miterlimit="10" stroke-width="3.7"/><path d="   M62.208,29.471c0.615-1.723,2.511-2.62,4.231-2.002" fill="none" stroke="#1B3236" stroke-linecap="round" stroke-linejoin="round" stroke-miterlimit="10" stroke-width="3.7"/><path d="   M59.017,66.035c0.02,1.91-1.513,3.473-3.422,3.49" fill="none" stroke="#1B3236" stroke-linecap="round" stroke-linejoin="round" stroke-miterlimit="10" stroke-width="3.7"/><line fill="none" stroke="#1B3236" stroke-linecap="round" stroke-linejoin="round" stroke-miterlimit="10" stroke-width="3.7" x1="33.978" x2="48.03" y1="35.77" y2="35.77"/><path d="   M17.204,37.736c3.964-4.712,9.904-7.704,16.543-7.704c11.945,0,21.623,9.678,21.623,21.616c0,11.938-9.678,21.611-21.623,21.611   c-11.938,0-21.615-9.674-21.615-21.611c-0.001-0.986,0.065-1.957,0.193-2.908h16.302" fill="none" stroke="#1B3236" stroke-linecap="round" stroke-linejoin="round" stroke-miterlimit="10" stroke-width="3.7"/><line fill="none" stroke="#1B3236" stroke-linecap="round" stroke-linejoin="round" stroke-miterlimit="10" stroke-width="3.7" x1="27.952" x2="46.237" y1="62.914" y2="62.914"/><line fill="none" stroke="#1B3236" stroke-linecap="round" stroke-linejoin="round" stroke-miterlimit="10" stroke-width="3.7" x1="32.071" x2="54.832" y1="54.893" y2="54.893"/><line fill="none" stroke="#1B3236" stroke-linecap="round" stroke-linejoin="round" stroke-miterlimit="10" stroke-width="3.7" x1="23.747" x2="27.79" y1="54.893" y2="54.893"/><line fill="none" stroke="#1B3236" stroke-linecap="round" stroke-linejoin="round" stroke-miterlimit="10" stroke-width="3.7" x1="48.534" x2="54.348" y1="46.186" y2="46.186"/><line fill="none" stroke="#1B3236" stroke-linecap="round" stroke-linejoin="round" stroke-miterlimit="10" stroke-width="3.7" x1="14.892" x2="39.011" y1="43.068" y2="43.068"/><path d="   M60.504,48.713c6.798,2.762,10.07,10.516,7.307,17.314c-2.762,6.799-10.516,10.07-17.314,7.309" fill="none" stroke="#1B3236" stroke-linecap="round" stroke-linejoin="round" stroke-miterlimit="10" stroke-width="3.7"/></g><path d="M40.423,22.551H40.42c-1.131-0.002-2.054-0.926-2.057-2.058c0.002-1.14,0.926-2.063,2.06-2.063  c1.138,0,2.064,0.924,2.064,2.06C42.487,21.626,41.561,22.551,40.423,22.551z" fill="#1B3236" /><path d="M67.737,44.369h-0.006c-1.13-0.005-2.051-0.929-2.054-2.058c0.003-1.141,0.927-2.064,2.06-2.064  c1.139,0,2.064,0.924,2.064,2.06C69.802,43.444,68.876,44.369,67.737,44.369z" fill="#1B3236" /></svg>