<?xml version="1.0" ?><!DOCTYPE svg  PUBLIC '-//W3C//DTD SVG 1.1//EN'  'http://www.w3.org/Graphics/SVG/1.1/DTD/svg11.dtd'>
<svg enable-background="new 0 0 48 48" height="48px" version="1.1" viewBox="0 0 48 48" width="48px" xml:space="preserve" xmlns="http://www.w3.org/2000/svg" xmlns:xlink="http://www.w3.org/1999/xlink">
<g id="Layer_1"/><g id="Layer_2">
<path style="fill: #1B3236;" d="M34.18,18H42v6h-7.82C32.999,24,32,22.626,32,21S32.999,18,34.18,18z M13,36h29V26h-7.82C31.875,26,30,23.757,30,21   s1.875-5,4.18-5H42V3c0-0.552-0.448-1-1-1H22v13c0,0.404-0.244,0.769-0.617,0.924C21.259,15.975,21.129,16,21,16   c-0.26,0-0.516-0.102-0.707-0.293L17,12.414l-3.293,3.293c-0.287,0.286-0.715,0.37-1.09,0.217C12.244,15.769,12,15.404,12,15V2H8   C7.448,2,7,2.448,7,3v38C7,38.243,9.691,36,13,36z M42,44v-2H13c-0.552,0-1-0.448-1-1s0.448-1,1-1h29v-2H13c-2.206,0-4,1.346-4,3   s1.794,3,4,3H42z M17,10c0.256,0,0.512,0.098,0.707,0.293L20,12.586V2h-6v10.586l2.293-2.293C16.488,10.098,16.744,10,17,10z"/>
</g></svg>