<?xml version="1.0" ?><!DOCTYPE svg  PUBLIC '-//W3C//DTD SVG 1.1//EN'  'http://www.w3.org/Graphics/SVG/1.1/DTD/svg11.dtd'>
<svg enable-background="new 0 0 85 85" height="85px" id="Layer_1" version="1.1" viewBox="0 0 85 85" width="85px" xml:space="preserve" xmlns="http://www.w3.org/2000/svg" xmlns:xlink="http://www.w3.org/1999/xlink">
<g><line fill="none" stroke="#1B3236" stroke-linecap="round" stroke-linejoin="round" stroke-miterlimit="10" stroke-width="3.7" x1="43.896" x2="62.266" y1="26.364" y2="26.364"/><path d="   M21.97,28.936c5.184-6.158,12.947-10.071,21.625-10.071c15.613,0,28.264,12.65,28.264,28.254c0,15.604-12.65,28.251-28.264,28.251   c-15.604,0-28.254-12.646-28.254-28.251c0-2.513,0.328-4.948,0.943-7.267h20.618" fill="none" stroke="#1B3236" stroke-linecap="round" stroke-linejoin="round" stroke-miterlimit="10" stroke-width="3.7"/><line fill="none" stroke="#1B3236" stroke-linecap="round" stroke-linejoin="round" stroke-miterlimit="10" stroke-width="3.7" x1="25.208" x2="49.783" y1="55.31" y2="55.31"/><line fill="none" stroke="#1B3236" stroke-linecap="round" stroke-linejoin="round" stroke-miterlimit="10" stroke-width="3.7" x1="45.178" x2="71.266" y1="49.192" y2="49.192"/><line fill="none" stroke="#1B3236" stroke-linecap="round" stroke-linejoin="round" stroke-miterlimit="10" stroke-width="3.7" x1="50.5" x2="65.33" y1="64.675" y2="64.675"/><line fill="none" stroke="#1B3236" stroke-linecap="round" stroke-linejoin="round" stroke-miterlimit="10" stroke-width="3.7" x1="39.993" x2="44.834" y1="64.675" y2="64.675"/><line fill="none" stroke="#1B3236" stroke-linecap="round" stroke-linejoin="round" stroke-miterlimit="10" stroke-width="3.7" x1="34.299" x2="39.584" y1="49.192" y2="49.192"/><line fill="none" stroke="#1B3236" stroke-linecap="round" stroke-linejoin="round" stroke-miterlimit="10" stroke-width="3.7" x1="62.924" x2="70.523" y1="39.979" y2="39.979"/><line fill="none" stroke="#1B3236" stroke-linecap="round" stroke-linejoin="round" stroke-miterlimit="10" stroke-width="3.7" x1="19.616" x2="51.143" y1="34.164" y2="34.164"/></g><circle cx="62.648" cy="16.772" fill="#394553" r="2.061"/>
<circle cx="47.668" cy="10.44" fill="#394553" r="2.061"/>
<circle cx="13.951" cy="68.355" fill="#394553" r="2.061"/></svg>