<?xml version="1.0" ?>
<!DOCTYPE svg  PUBLIC '-//W3C//DTD SVG 1.1//EN'  'http://www.w3.org/Graphics/SVG/1.1/DTD/svg11.dtd'>
<svg enable-background="new 0 0 48 48" height="48px" version="1.1" viewBox="0 0 48 48" width="48px" xml:space="preserve" 
xmlns="http://www.w3.org/2000/svg" xmlns:xlink="http://www.w3.org/1999/xlink"><g id="Layer_1"/><g id="Layer_2">
<path style="fill: #1B3236;" d="M7,2.816v36.678c3.958-1.448,10.467-2.155,16-0.011V4.071C20.818,2.708,17.152,2,13.5,2C11.218,2,8.932,2.278,7,2.816z    M21.895,27.447c-0.247,0.494-0.847,0.694-1.342,0.447c-3.789-1.895-8.866-1.121-11.105,0C9.304,27.966,9.151,28,9.001,28   c-0.367,0-0.72-0.202-0.896-0.553c-0.247-0.494-0.047-1.095,0.447-1.342c3.127-1.563,8.709-2.094,12.895,0   C21.941,26.353,22.142,26.953,21.895,27.447z M21.895,20.71c-0.247,0.494-0.847,0.694-1.342,0.447   c-3.789-1.895-8.866-1.121-11.105,0c-0.144,0.072-0.296,0.105-0.446,0.105c-0.367,0-0.72-0.202-0.896-0.553   c-0.247-0.494-0.047-1.095,0.447-1.342c3.127-1.563,8.709-2.093,12.895,0C21.941,19.615,22.142,20.216,21.895,20.71z    M21.447,13.105c0.494,0.247,0.694,0.848,0.447,1.342c-0.247,0.494-0.847,0.694-1.342,0.447c-3.789-1.895-8.866-1.122-11.105,0   C9.304,14.966,9.151,15,9.001,15c-0.367,0-0.72-0.202-0.896-0.553c-0.247-0.494-0.047-1.095,0.447-1.342   C11.68,11.542,17.262,11.012,21.447,13.105z M41,39.494V2.816C39.068,2.278,36.782,2,34.5,2c-3.652,0-7.318,0.708-9.5,2.071v35.413   C30.534,37.338,37.042,38.046,41,39.494z M26.553,13.105c4.186-2.094,9.768-1.564,12.895,0c0.494,0.247,0.694,0.848,0.447,1.342   C39.719,14.798,39.366,15,38.999,15c-0.15,0-0.303-0.034-0.446-0.105c-2.238-1.12-7.317-1.894-11.105,0   c-0.495,0.248-1.094,0.046-1.342-0.447C25.858,13.953,26.059,13.353,26.553,13.105z M26.553,19.368   c4.186-2.095,9.768-1.563,12.895,0c0.494,0.247,0.694,0.848,0.447,1.342c-0.175,0.351-0.528,0.553-0.896,0.553   c-0.15,0-0.303-0.034-0.446-0.105c-2.238-1.119-7.317-1.894-11.105,0c-0.495,0.248-1.094,0.046-1.342-0.447   C25.858,20.216,26.059,19.615,26.553,19.368z M26.105,27.447c-0.247-0.494-0.047-1.095,0.447-1.342   c4.186-2.095,9.768-1.563,12.895,0c0.494,0.247,0.694,0.848,0.447,1.342C39.719,27.798,39.366,28,38.999,28   c-0.15,0-0.303-0.034-0.446-0.105c-2.238-1.119-7.317-1.894-11.105,0C26.952,28.142,26.353,27.941,26.105,27.447z M23,41.646V46H3   c-0.552,0-1-0.448-1-1V7c0-1.481,1.183-2.64,3-3.47V41c0,0.011,0.006,0.02,0.006,0.03c0.002,0.066,0.024,0.131,0.04,0.197   c0.016,0.064,0.024,0.13,0.051,0.189c0.004,0.01,0.003,0.021,0.008,0.03c0.023,0.045,0.062,0.075,0.09,0.116   c0.041,0.058,0.077,0.118,0.129,0.166c0.048,0.044,0.104,0.074,0.16,0.108c0.054,0.033,0.103,0.069,0.163,0.092   c0.068,0.025,0.139,0.032,0.211,0.042C5.908,41.979,5.95,42,6,42c0.011,0,0.02-0.006,0.03-0.006c0.066-0.002,0.13-0.024,0.196-0.04   c0.065-0.015,0.131-0.024,0.191-0.051c0.01-0.004,0.021-0.003,0.03-0.008C9.889,40.174,17.183,39.029,23,41.646z M46,7v38   c0,0.552-0.448,1-1,1H25v-4.354c5.819-2.617,13.111-1.473,16.553,0.248c0.013,0.006,0.026,0.008,0.039,0.014   c0.019,0.008,0.037,0.013,0.056,0.02C41.763,41.973,41.881,42,41.999,42h0h0c0.001,0,0.002,0,0.002,0   c0.119,0,0.232-0.028,0.343-0.069c0.03-0.012,0.058-0.024,0.087-0.038c0.087-0.042,0.167-0.095,0.239-0.161   c0.014-0.013,0.031-0.022,0.044-0.036c0.07-0.072,0.132-0.154,0.18-0.249c0.005-0.01,0.004-0.021,0.008-0.03   c0.027-0.059,0.036-0.125,0.051-0.189c0.016-0.066,0.038-0.131,0.04-0.197C42.994,41.02,43,41.011,43,41V3.53   C44.817,4.36,46,5.519,46,7z"/>
</g></svg>