<?xml version="1.0" ?>
<!DOCTYPE svg  PUBLIC '-//W3C//DTD SVG 1.1//EN'  'http://www.w3.org/Graphics/SVG/1.1/DTD/svg11.dtd'>
<svg enable-background="new 0 0 85 85" height="85px" id="Layer_1" version="1.1" viewBox="0 0 85 85" width="85px" xml:space="preserve" xmlns="http://www.w3.org/2000/svg" xmlns:xlink="http://www.w3.org/1999/xlink"><g>
<path d="M21.165,25.636   c7.448-9.574,20.515-13.201,31.946-8.543" fill="none" stroke="#1B3236" stroke-linejoin="round" stroke-miterlimit="10" stroke-width="4"/><path d="M57.99,65.34   c-7.992,5.303-18.537,6.25-27.688,1.564c-10.998-5.629-16.576-17.662-14.51-29.224" fill="none" stroke="#1B3236" stroke-linejoin="round" stroke-miterlimit="10" stroke-width="4"/><path d="M64.131,25.263   c6.602,8.174,8.176,19.784,3.082,29.735" fill="none" stroke="#1B3236" stroke-linejoin="round" stroke-miterlimit="10" stroke-width="4"/><path d="M29.839,53.127   c-4.097-4.998-5.091-12.143-1.958-18.263c4.217-8.236,14.312-11.496,22.551-7.279c8.242,4.219,11.502,14.316,7.285,22.552   c-3.1,6.055-9.375,9.42-15.756,9.104" fill="none" stroke="#1B3236" stroke-miterlimit="10" stroke-width="4"/><circle cx="61.174" cy="22.27" fill="none" r="4.109" stroke="#1B3236" stroke-linejoin="round" stroke-miterlimit="10" stroke-width="4"/><circle cx="33.156" cy="56.116" fill="none" r="4.109" stroke="#1B3236" stroke-linejoin="round" stroke-miterlimit="10" stroke-width="4"/><circle cx="18.879" cy="29.278" fill="none" r="4.11" stroke="#1B3236" stroke-linejoin="round" stroke-miterlimit="10" stroke-width="4"/><circle cx="61.423" cy="62.611" fill="none" r="4.11" stroke="#1B3236" stroke-linejoin="round" stroke-miterlimit="10" stroke-width="4"/><circle cx="42.799" cy="42.501" fill="none" r="7.118" stroke="#1B3236" stroke-miterlimit="10" stroke-width="4"/></g></svg>