<?xml version="1.0" ?><!DOCTYPE svg  PUBLIC '-//W3C//DTD SVG 1.1//EN'  'http://www.w3.org/Graphics/SVG/1.1/DTD/svg11.dtd'><svg enable-background="new 0 0 48 48" height="48px" version="1.1" viewBox="0 0 48 48" width="48px" xml:space="preserve" xmlns="http://www.w3.org/2000/svg" xmlns:xlink="http://www.w3.org/1999/xlink">
<g id="Layer_1"/>
<g id="Layer_2">
<path style="fill: #1B3236;" d="M39,33c0,0.45-0.3,0.84-0.73,0.96C37.98,34.04,31.06,36,24,36s-13.98-1.96-14.27-2.04C9.3,33.84,9,33.45,9,33v-8.47   l13.6,7.13C23.03,31.88,23.51,32,24,32s0.97-0.12,1.39-0.34L39,24.53V33z M45.464,17.114l-21-11c-0.291-0.152-0.637-0.152-0.928,0   l-21,11C2.206,17.287,2,17.628,2,18s0.207,0.713,0.536,0.886l21,11C23.681,29.962,23.841,30,24,30s0.319-0.038,0.464-0.114   L41,21.225v14.959c-1.161,0.415-2,1.514-2,2.816c0,1.654,1.346,3,3,3s3-1.346,3-3c0-1.302-0.839-2.401-2-2.816V20.177l2.464-1.291   C45.793,18.713,46,18.372,46,18S45.794,17.287,45.464,17.114z"/></g></svg>