<?xml version="1.0" ?>
<!DOCTYPE svg  PUBLIC '-//W3C//DTD SVG 1.1//EN'  'http://www.w3.org/Graphics/SVG/1.1/DTD/svg11.dtd'>
<svg enable-background="new 0 0 85 85" height="85px" id="Layer_1" version="1.1" viewBox="0 0 85 85" width="85px" xml:space="preserve" xmlns="http://www.w3.org/2000/svg" xmlns:xlink="http://www.w3.org/1999/xlink">
<g><g>
<line fill="none" stroke="#1B3236" stroke-linecap="round" stroke-linejoin="round" stroke-miterlimit="10" stroke-width="4" x1="14.217" x2="14.217" y1="16.282" y2="23.546"/>
<line fill="none" stroke="#1B3236" stroke-linecap="round" stroke-linejoin="round" stroke-miterlimit="10" stroke-width="4" x1="17.849" x2="10.586" y1="19.916" y2="19.916"/>
</g><g>
<line fill="none" stroke="#1B3236" stroke-linecap="round" stroke-linejoin="round" stroke-miterlimit="10" stroke-width="4" x1="67.877" x2="67.877" y1="28.282" y2="35.546"/>
<line fill="none" stroke="#1B3236" stroke-linecap="round" stroke-linejoin="round" stroke-miterlimit="10" stroke-width="4" x1="71.509" x2="64.246" y1="31.916" y2="31.916"/>
</g>
<path d="   M76.875,39.198c0.937,16.679-11.824,30.958-28.504,31.896c-12.55,0.705-23.296-8.896-24.001-21.449   c-0.53-9.444,6.695-17.53,16.14-18.061c7.107-0.398,13.192,5.038,13.591,12.145c0.301,5.348-3.79,9.928-9.138,10.229   c-4.024,0.227-7.471-2.852-7.697-6.877" fill="none" stroke="#1B3236" stroke-linecap="round" stroke-linejoin="round" stroke-miterlimit="10" stroke-width="4"/><path d="   M8.125,53.996C7.189,37.317,19.949,23.037,36.628,22.099c12.551-0.704,23.298,8.897,24.002,21.45   c0.53,9.445-6.694,17.529-16.139,18.062c-7.107,0.398-13.192-5.039-13.592-12.146c-0.3-5.348,3.789-9.928,9.137-10.228   c4.025-0.227,7.472,2.851,7.697,6.876" fill="none" stroke="#1B3236" stroke-linecap="round" stroke-linejoin="round" stroke-miterlimit="10" stroke-width="4"/></g><path d="M30.729,16.742h-0.003c-1.131-0.002-2.054-0.926-2.057-2.058c0.002-1.14,0.926-2.063,2.06-2.063  c1.138,0,2.064,0.924,2.064,2.06C32.794,15.817,31.868,16.742,30.729,16.742z" fill="#1B3236"/><path d="M18.413,42.509H18.41c-1.131-0.002-2.054-0.926-2.057-2.058c0.002-1.14,0.926-2.063,2.06-2.063  c1.138,0,2.064,0.924,2.064,2.06C20.478,41.584,19.551,42.509,18.413,42.509z" fill="#1B3236"/><path d="M16.687,62.51h-0.005c-1.13-0.005-2.052-0.928-2.054-2.058c0.002-1.141,0.926-2.063,2.06-2.063  c1.138,0,2.064,0.924,2.064,2.059C18.751,61.585,17.825,62.51,16.687,62.51z" fill="#1B3236"/><path d="M65.209,57.01h-0.006c-1.13-0.005-2.051-0.928-2.054-2.058c0.003-1.141,0.927-2.063,2.06-2.063  c1.139,0,2.064,0.924,2.064,2.059C67.273,56.085,66.348,57.01,65.209,57.01z" fill="#1B3236"/>
</svg>